<svg xmlns="http://www.w3.org/2000/svg" viewBox="0 0 184.89 57.14" width="184.89" height="57.14"><title>github-logo</title><path d="M35.61,21.4H20.07a.73.73,0,0,0-.73.73v7.6a.73.73,0,0,0,.73.73h6.06v9.44a18.35,18.35,0,0,1-5.12.46c-4.44,0-10.64-1.62-10.64-15.26S16.83,9.66,22.89,9.66A24.57,24.57,0,0,1,31.84,11a.73.73,0,0,0,.87-.71L34.44,3a.68.68,0,0,0-.28-.57C33.58,2,30,0,21,0,10.64,0,0,4.41,0,25.63S12.18,50,22.45,50c8.5,0,13.65-3.63,13.65-3.63a.62.62,0,0,0,.24-.55V22.13A.73.73,0,0,0,35.61,21.4Z" fill="#0f0d0e"/><path d="M115.68,2.54a.72.72,0,0,0-.72-.73h-8.75a.73.73,0,0,0-.72.73V19.45H91.85V2.54a.72.72,0,0,0-.72-.73H82.38a.73.73,0,0,0-.72.73V48.32a.73.73,0,0,0,.72.73h8.75a.73.73,0,0,0,.72-.73V28.74h13.64l0,19.58a.73.73,0,0,0,.72.73H115a.73.73,0,0,0,.72-.73Z" fill="#0f0d0e"/><ellipse cx="46.48" cy="8.55" rx="5.64" ry="5.7" fill="#0f0d0e"/><path d="M51.49,38.66V17.53a.73.73,0,0,0-.72-.73H42a.83.83,0,0,0-.76.81V47.89c0,.89.55,1.15,1.27,1.15h7.86c.86,0,1.07-.42,1.07-1.17Z" fill="#0f0d0e"/><path d="M148.93,16.87h-8.68a.73.73,0,0,0-.72.73V40a9.81,9.81,0,0,1-5.34,1.61c-3.13,0-4-1.42-4-4.49V17.6a.73.73,0,0,0-.72-.73h-8.81a.73.73,0,0,0-.72.73V38.66C120,47.76,125,50,132,50a20.34,20.34,0,0,0,10.34-3.16,18.38,18.38,0,0,0,.32,1.86.77.77,0,0,0,.64.4l5.6,0a.73.73,0,0,0,.72-.73V17.6A.73.73,0,0,0,148.93,16.87Z" fill="#0f0d0e"/><path d="M172.65,15.84a16.32,16.32,0,0,0-8.28,2.2V2.54a.73.73,0,0,0-.72-.73h-8.77a.73.73,0,0,0-.72.73V48.32a.73.73,0,0,0,.72.73H161a.73.73,0,0,0,.63-.39,14.26,14.26,0,0,0,.37-2.11s3.59,3.4,10.38,3.4c8,0,12.54-4,12.54-18.15S177.59,15.84,172.65,15.84Zm-3.42,25.79a10.41,10.41,0,0,1-5.05-1.46V25.68a11.57,11.57,0,0,1,4.49-1.46c3.13-.28,6.14.66,6.14,8.12C174.8,40.21,173.44,41.76,169.23,41.63Z" fill="#0f0d0e"/><path d="M76.63,16.8H70.07V8.13c0-.33-.17-.49-.55-.49H60.57c-.35,0-.53.15-.53.49v9s-4.48,1.08-4.78,1.17a.73.73,0,0,0-.52.7v5.63a.73.73,0,0,0,.72.73H60V38.85c0,10.06,7.06,11,11.82,11A20,20,0,0,0,77.06,49a.68.68,0,0,0,.41-.66V42.19a.74.74,0,0,0-.73-.73c-.38,0-1.36.16-2.37.16-3.22,0-4.32-1.5-4.32-3.44s0-12.87,0-12.87h6.56a.73.73,0,0,0,.72-.73V17.53A.73.73,0,0,0,76.63,16.8Z" fill="#0f0d0e"/></svg>