<svg xmlns="http://www.w3.org/2000/svg" viewBox="0 0 128.57 57.14" width="184.89" height="57.14"><title>npm-logo</title><path d="M0,7.14H128.57V50H64.29v7.14H35.71V50H0ZM7.14,42.86H21.43V21.43h7.14V42.86h7.14V14.29H7.14ZM42.86,14.29V50H57.14V42.86H71.43V14.29Zm14.29,7.14h7.14V35.71H57.14Zm21.43-7.14V42.86H92.86V21.43H100V42.86h7.14V21.43h7.14V42.86h7.14V14.29Z" fill="#cb3837"/><polygon points="7.14 42.86 21.43 42.86 21.43 21.43 28.57 21.43 28.57 42.86 35.71 42.86 35.71 14.29 7.14 14.29 7.14 42.86" fill="#fff"/><path d="M42.86,14.29V50H57.14V42.86H71.43V14.29ZM64.29,35.71H57.14V21.43h7.14Z" fill="#fff"/><polygon points="78.57 14.29 78.57 42.86 92.86 42.86 92.86 21.43 100 21.43 100 42.86 107.14 42.86 107.14 21.43 114.28 21.43 114.28 42.86 121.43 42.86 121.43 14.29 78.57 14.29" fill="#fff"/></svg>